<svg width="43" height="43" viewBox="0 0 43 43" fill="none" xmlns="http://www.w3.org/2000/svg">
<circle cx="21.5" cy="21.5" r="21.5" fill="#FEFFFE"/>
<path fill-rule="evenodd" clip-rule="evenodd" d="M11.5195 26.4112C13.022 16.143 14.108 11.6393 15.9069 10.4879C15.9587 11.5639 16.4988 12.4864 18.4333 13.4072C16.9638 15.4523 17.2253 18.0412 18.4007 20.3911C19.0017 20.9626 19.5996 21.5369 20.1129 22.1836C20.502 22.689 21.0141 23.0067 21.6389 23.1521C22.1916 23.0308 22.6833 22.7575 23.1278 22.3698C23.6819 21.7217 24.261 21.1184 24.8772 20.5819C25.5591 19.6361 25.9445 18.2252 25.8821 16.1123C25.8861 15.1002 25.5804 14.1445 24.7655 13.2815C26.1603 12.7261 27.2429 11.9507 27.2965 10.4507C29.4395 12.2323 30.5508 18.4882 31.2046 26.7278L31.4838 27.212C26.6132 37.9544 15.6772 37.1626 11.6826 26.6141C11.6625 26.5608 11.5428 26.4635 11.5195 26.4112ZM30.9741 26.8419L29.7725 26.8414C26.3998 35.21 15.6814 34.197 13.2641 26.5553L12.1869 26.5113C14.5822 33.6428 20.2084 34.4187 21.5606 34.3964C23.1802 34.3695 28.803 33.6577 30.9741 26.8419ZM29.4248 26.7581L29.3955 26.6929L28.0508 17.2485L28.7301 26.6929L28.4698 26.8046C25.0678 31.4452 18.88 31.8811 15.2042 26.6929L14.1629 26.6585L14.656 17.2485L13.4371 26.2365L13.578 26.6929C15.173 30.7887 18.8115 32.3364 21.4954 32.3291C24.2404 32.3216 27.7283 30.8827 29.4248 26.7581ZM27.9825 26.6929H27.125L26.4503 20.8949L26.6178 26.6929H26.418C23.6955 29.619 19.8001 29.8575 17.0187 26.6997L16.6008 26.7005L16.8334 20.8949L16.0612 26.6929L15.6066 26.7023C16.6804 28.0977 19.1558 30.083 21.8397 30.0756C24.5847 30.0681 27.2258 27.9588 27.9825 26.6929ZM25.819 26.6929L24.6175 26.6924C22.6897 27.5693 20.8402 27.5393 19.0613 26.6904L17.6491 26.6929C18.723 28.0882 20.4131 28.5895 21.7653 28.5671C23.3849 28.5403 25.0437 27.7167 25.819 26.6929ZM19.2731 25.4962C20.9483 26.1837 22.8022 26.18 24.6589 25.4737L24.6485 26.2528C23.0436 27.0526 21.1138 27.088 19.2731 26.4228V25.4962ZM19.401 24.2228C21.3418 24.338 23.0806 23.8345 24.612 22.6957L24.5788 25.005C22.9738 25.8048 21.2417 25.8145 19.401 25.1494V24.2228Z" fill="url(#paint0_linear_542_207)"/>
<path fill-rule="evenodd" clip-rule="evenodd" d="M21.7053 9.79253C21.4796 8.88935 20.8154 8.30724 19.7461 7.99999C21.0036 7.57985 22.3068 7.56031 23.6636 8.00932C22.5013 8.33109 21.9324 8.91053 21.7053 9.79253Z" fill="#E9BC47"/>
<path fill-rule="evenodd" clip-rule="evenodd" d="M17.2641 11.2638C15.4999 8.46022 21.5259 7.46645 20.1913 10.5182C19.2882 11.9753 20.4541 12.6291 21.7032 13.089V13.0716C22.9523 12.6118 24.1182 11.958 23.2151 10.5009C21.8805 7.44911 27.9066 8.44292 26.1423 11.2465C25.7551 11.7598 24.9939 12.2304 23.9092 12.6165C23.294 12.8356 21.0239 13.3011 22.5737 14.0214C22.3295 14.0444 21.935 14.0173 21.7032 13.6676V13.6849C21.4714 14.0346 21.0769 14.0616 20.8327 14.0388C22.3825 13.3185 20.1124 12.8529 19.4972 12.6339C18.4125 12.2476 17.6513 11.7771 17.2641 11.2638Z" fill="#E9BC47"/>
<path fill-rule="evenodd" clip-rule="evenodd" d="M21.0128 11.2496C20.8673 11.1917 20.8055 11.2066 20.7964 11.1239L20.7383 10.3952C20.7115 10.3286 20.6512 10.3229 20.6057 10.3929C20.48 10.6295 20.415 10.8966 20.4382 11.2077C20.5992 11.6899 21.3464 11.4041 21.0128 11.2496Z" fill="#E9BC47"/>
<path fill-rule="evenodd" clip-rule="evenodd" d="M22.4408 11.2496C22.5863 11.1917 22.6481 11.2066 22.6571 11.1239L22.7153 10.3952C22.7421 10.3286 22.8024 10.3229 22.8479 10.3929C22.9736 10.6295 23.0385 10.8966 23.0154 11.2077C22.8544 11.6899 22.1072 11.4041 22.4408 11.2496Z" fill="#E9BC47"/>
<path fill-rule="evenodd" clip-rule="evenodd" d="M18.4136 15.0076C18.1972 15.0744 18.0407 15.1799 17.9297 15.3149C18.3842 15.2172 18.8601 15.1422 19.3022 15.4057L20.7027 16.2647C20.7709 16.2867 20.8298 16.2707 20.8795 16.2182C20.9032 16.1372 20.8961 16.0601 20.8701 15.9854C20.3389 15.5977 19.7978 15.2711 19.2417 15.0449C18.9464 14.9234 18.6717 14.918 18.4136 15.0076Z" fill="#E9BC47"/>
<path fill-rule="evenodd" clip-rule="evenodd" d="M18.6259 16.6293L18.1654 16.2615L18.6539 16.4338C19.4046 16.0282 20.013 16.4494 20.5615 16.8854C20.4721 16.5733 20.2383 16.2973 19.9008 16.0473C19.4405 15.7116 18.88 15.6226 18.2584 15.6842C17.8091 15.7466 17.6739 16.082 17.7652 16.4989C18.0057 17.0009 18.4264 17.3544 18.9609 17.486C18.8663 17.3928 18.8167 17.303 18.8027 17.2159C18.7764 17.0576 18.7903 16.9304 18.8447 16.8341C18.9218 16.7655 19.0171 16.7739 19.1191 16.8109C19.0235 17.6911 19.9524 17.7537 20.0915 17.0576L20.2311 17.1787C20.2984 17.27 20.3282 17.4164 20.3149 17.6257L20.6685 17.7048C20.6637 17.507 20.6376 17.3175 20.5521 17.1507C20.4005 16.9013 20.2187 16.6752 19.9054 16.5502C19.412 16.3807 19.0755 16.3998 18.6259 16.6293ZM19.7705 16.783C19.8797 16.783 19.9682 16.8652 19.9682 16.9666C19.9682 17.068 19.8797 17.1502 19.7705 17.1502C19.6613 17.1502 19.5727 17.068 19.5727 16.9666C19.5727 16.8652 19.6613 16.783 19.7705 16.783Z" fill="#E9BC47"/>
<path fill-rule="evenodd" clip-rule="evenodd" d="M21.3589 20.8947C20.9979 20.8299 20.6329 20.8415 20.2656 20.8947C20.45 20.3271 21.181 19.9665 21.7044 20.3544V20.3532C22.2277 19.9653 22.9588 20.3259 23.1431 20.8935C22.7758 20.8403 22.4108 20.8287 22.0498 20.8935C21.9355 20.9624 21.8313 20.9985 21.7044 21.0155C21.5774 20.9985 21.4611 20.98 21.3589 20.8947Z" fill="#E9BC47"/>
<path fill-rule="evenodd" clip-rule="evenodd" d="M21.706 21.8191C21.0296 21.8259 20.5638 21.5561 20.2844 21.0415C20.6259 21.0016 20.9627 20.9923 21.2918 21.0331C21.5679 21.1321 21.8379 21.1323 22.1013 21.0264C22.4363 20.985 22.7673 20.9726 23.09 21.0182C22.8003 21.5778 22.3307 21.8307 21.706 21.8191Z" fill="#E9BC47"/>
<path fill-rule="evenodd" clip-rule="evenodd" d="M21.4224 19.5331C21.3945 19.3694 21.0549 19.471 20.8711 19.4399C20.9704 19.3084 21.102 19.2324 21.3131 19.2933C21.4264 19.3305 21.4766 19.4028 21.4224 19.5331Z" fill="#E9BC47"/>
<path fill-rule="evenodd" clip-rule="evenodd" d="M21.9352 19.5331C21.9631 19.3694 22.3028 19.471 22.4866 19.4399C22.3873 19.3084 22.2556 19.2324 22.0446 19.2933C21.9312 19.3305 21.881 19.4028 21.9352 19.5331Z" fill="#E9BC47"/>
<path fill-rule="evenodd" clip-rule="evenodd" d="M24.9764 14.9231C25.1928 14.9899 25.3494 15.0954 25.4603 15.2305C25.0058 15.1328 24.5298 15.0577 24.0878 15.3213L22.6874 16.1803C22.6191 16.2023 22.5602 16.1862 22.5106 16.1337C22.4868 16.0527 22.4939 15.9757 22.5198 15.9009C23.0511 15.5132 23.5922 15.1867 24.1483 14.9604C24.4435 14.839 24.7183 14.8335 24.9764 14.9231Z" fill="#E9BC47"/>
<path fill-rule="evenodd" clip-rule="evenodd" d="M24.7613 16.5463L25.2218 16.1785L24.7333 16.3507C23.9826 15.9452 23.3743 16.3664 22.8258 16.8024C22.9152 16.4903 23.1489 16.2143 23.4864 15.9643C23.9467 15.6286 24.5072 15.5396 25.1288 15.6011C25.5781 15.6636 25.7133 15.999 25.622 16.4159C25.3815 16.9179 24.9609 17.2715 24.4263 17.403C24.5209 17.3097 24.5705 17.22 24.5845 17.1329C24.6108 16.9747 24.5969 16.8474 24.5426 16.7512C24.4654 16.6826 24.3701 16.6909 24.2681 16.7279C24.3637 17.6082 23.4349 17.6707 23.2957 16.9747L23.1561 17.0957C23.0888 17.1871 23.059 17.3334 23.0723 17.5427L22.7188 17.6218C22.7235 17.424 22.7496 17.2345 22.8351 17.0678C22.9867 16.8183 23.1685 16.5922 23.4818 16.4672C23.9752 16.2977 24.3116 16.3168 24.7613 16.5463ZM23.6167 16.7001C23.5075 16.7001 23.419 16.7822 23.419 16.8836C23.419 16.985 23.5075 17.0672 23.6167 17.0672C23.726 17.0672 23.8145 16.985 23.8145 16.8836C23.8145 16.7822 23.726 16.7001 23.6167 16.7001Z" fill="#E9BC47"/>
<defs>
<linearGradient id="paint0_linear_542_207" x1="31.4838" y1="34.9056" x2="11.5024" y2="10.4646" gradientUnits="userSpaceOnUse">
<stop stop-color="#CA9000"/>
<stop offset="0.0196078" stop-color="#BB7F00"/>
<stop offset="0.0392157" stop-color="#AC6E00"/>
<stop offset="0.0509804" stop-color="#915900"/>
<stop offset="0.121569" stop-color="#B3872C"/>
<stop offset="0.25098" stop-color="#D6B659"/>
<stop offset="0.501961" stop-color="#FFF6AC"/>
<stop offset="0.678431" stop-color="#EBD683"/>
<stop offset="0.74902" stop-color="#D6B659"/>
<stop offset="0.870588" stop-color="#B4882D"/>
<stop offset="0.941176" stop-color="#915900"/>
<stop offset="0.94902" stop-color="#AC6E00"/>
<stop offset="1" stop-color="#CA9000"/>
</linearGradient>
</defs>
</svg>
