<svg width="98" height="98" viewBox="0 0 98 98" fill="none" xmlns="http://www.w3.org/2000/svg">
<g filter="url(#filter0_d_542_265)">
<rect x="17" width="64" height="64" rx="12" fill="#2BE3A0"/>
</g>
<path fill-rule="evenodd" clip-rule="evenodd" d="M43.7464 25.1522C41.9891 25.1522 40.56 23.7231 40.56 21.9658C40.56 20.2086 41.9891 18.7795 43.7464 18.7795C45.5036 18.7795 46.9327 20.2086 46.9327 21.9658C46.9327 23.7231 45.5036 25.1522 43.7464 25.1522ZM43.7464 14C39.3476 14 35.7805 17.5655 35.7805 21.9658C35.7805 26.3662 39.3476 29.9317 43.7464 29.9317C48.1451 29.9317 51.7122 26.3662 51.7122 21.9658C51.7122 17.5655 48.1451 14 43.7464 14Z" fill="white"/>
<path fill-rule="evenodd" clip-rule="evenodd" d="M30.9993 42.6769V50.6428H35.7788V42.6769C35.7788 40.0418 37.9232 37.8974 40.5583 37.8974H46.9309V33.1179H40.5583C35.3008 33.1179 30.9993 37.4195 30.9993 42.6769Z" fill="white"/>
<mask id="mask0_542_265" style="mask-type:alpha" maskUnits="userSpaceOnUse" x="31" y="14" width="36" height="37">
<path d="M31 50.6431H66.0497V14.0002H31V50.6431Z" fill="white"/>
</mask>
<g mask="url(#mask0_542_265)">
<path fill-rule="evenodd" clip-rule="evenodd" d="M54.8964 41.0838H61.2691V37.8974H54.8964V41.0838ZM50.1169 33.1179V49.0496V50.6428L54.8964 45.8633H66.0486V33.1179H50.1169Z" fill="white"/>
</g>
<defs>
<filter id="filter0_d_542_265" x="0" y="0" width="98" height="98" filterUnits="userSpaceOnUse" color-interpolation-filters="sRGB">
<feFlood flood-opacity="0" result="BackgroundImageFix"/>
<feColorMatrix in="SourceAlpha" type="matrix" values="0 0 0 0 0 0 0 0 0 0 0 0 0 0 0 0 0 0 127 0" result="hardAlpha"/>
<feOffset dy="17"/>
<feGaussianBlur stdDeviation="8.5"/>
<feComposite in2="hardAlpha" operator="out"/>
<feColorMatrix type="matrix" values="0 0 0 0 0.168627 0 0 0 0 0.890196 0 0 0 0 0.627451 0 0 0 0.28 0"/>
<feBlend mode="normal" in2="BackgroundImageFix" result="effect1_dropShadow_542_265"/>
<feBlend mode="normal" in="SourceGraphic" in2="effect1_dropShadow_542_265" result="shape"/>
</filter>
</defs>
</svg>
